# xmcd CD database file
#
# Track frame offsets:
#	150
#	29246
#	42398
#	55748
#	78683
#	96155
#	105300
#	121264
#	131695
#	152593
#
# Disc length: 2564 seconds
#
# Revision: 0
# Processed by: cddbd v1.5.2PL0 Copyright (c) Steve Scherf et al.
# Submitted via: CDex 1.51
#
DISCID=810a020a
DTITLE=Los Papines - CubaJazz, 7
DYEAR=2007
DGENRE=Jazz
TTITLE0=Esa me la llevo yo
TTITLE1=Nostalgia
TTITLE2=El bobito  de mi cuadra
TTITLE3=Salsa criolla
TTITLE4=Amo esta isla
TTITLE5=Abuela no se puede evitar
TTITLE6=Amor en festival
TTITLE7=Popurri mexico
TTITLE8=Canto a mantanzas
TTITLE9=Papines en descarga con Ruben Gonzalez
EXTD=YEAR: 2007
EXTT0=
EXTT1=
EXTT2=
EXTT3=
EXTT4=
EXTT5=
EXTT6=
EXTT7=
EXTT8=
EXTT9=
PLAYORDER=
